<svg xml:space="preserve" viewBox="254.88000000000002 32.768 435.184 884.736" width="435.184" y="0px" x="0px" xmlns:xlink="http://www.w3.org/1999/xlink" xmlns="http://www.w3.org/2000/svg" id="Layer_1" version="1.1" style="max-height: 500px" height="884.736">
<path d="M920.531372,1.000000 &#xA;&#9;C919.668457,2.792630 917.701050,2.313607 915.932495,2.327997 &#xA;&#9;C909.267883,2.382223 902.593994,2.556290 895.940918,2.274504 &#xA;&#9;C892.040527,2.109307 889.462585,3.384859 887.095154,6.512944 &#xA;&#9;C860.253784,41.978645 832.403137,76.643135 804.200867,111.035599 &#xA;&#9;C768.082825,155.081070 732.200439,199.320114 696.289307,243.534882 &#xA;&#9;C676.278320,268.172974 656.485168,292.988037 636.466980,317.620209 &#xA;&#9;C612.976135,346.525421 589.313171,375.290619 565.788757,404.168579 &#xA;&#9;C543.835876,431.117340 522.072876,458.221497 500.023224,485.090576 &#xA;&#9;C485.359497,502.959381 471.114929,521.179321 455.111511,537.938843 &#xA;&#9;C448.913483,544.429688 440.919891,547.757690 433.595184,552.223755 &#xA;&#9;C413.871216,564.249817 394.163910,576.356506 375.462982,589.868347 &#xA;&#9;C347.181885,610.302063 318.472687,630.333008 293.953827,655.447876 &#xA;&#9;C281.619507,668.082031 269.005188,680.484314 257.888824,694.213013 &#xA;&#9;C258.193085,696.461853 260.864288,697.076904 260.988159,699.897400 &#xA;&#9;C253.589523,705.233887 243.292725,706.497986 236.629028,714.218506 &#xA;&#9;C240.821564,717.941833 246.198517,718.497131 250.998734,719.426880 &#xA;&#9;C278.688568,724.790527 306.582458,728.864929 334.642700,731.883118 &#xA;&#9;C354.923615,734.064575 375.107208,737.137024 395.371887,739.486938 &#xA;&#9;C417.783508,742.085815 440.264099,744.095764 462.666321,746.767578 &#xA;&#9;C483.426270,749.243469 504.095276,752.415955 524.712891,755.930786 &#xA;&#9;C551.702087,760.532043 578.623535,765.491638 605.432434,771.029419 &#xA;&#9;C636.687561,777.485840 667.740540,784.819275 698.446533,793.560791 &#xA;&#9;C734.437439,803.806824 770.260498,814.586975 805.660645,826.752502 &#xA;&#9;C836.512878,837.355164 867.062622,848.758301 897.112122,861.443481 &#xA;&#9;C913.016052,868.157288 928.607666,875.610718 944.670105,882.865112 &#xA;&#9;C945.000000,930.237244 945.000000,977.474548 945.000000,1025.000000 &#xA;&#9;C920.646545,1025.000000 896.291931,1025.000000 871.506104,1024.754150 &#xA;&#9;C868.931030,1022.565186 869.152771,1018.797852 866.151550,1017.636475 &#xA;&#9;C858.885620,1014.824951 851.707153,1011.622314 844.026978,1010.144287 &#xA;&#9;C833.128113,1008.046692 822.158081,1009.111694 811.223816,1010.172913 &#xA;&#9;C809.737915,1010.317200 807.936279,1010.342651 807.170898,1011.722839 &#xA;&#9;C805.589966,1014.573792 802.757751,1015.040649 800.139343,1015.967529 &#xA;&#9;C798.113708,1016.684509 796.178955,1017.502563 794.616699,1019.255005 &#xA;&#9;C798.575867,1021.452942 803.335876,1020.012939 807.066956,1023.044434 &#xA;&#9;C802.466125,1023.044434 797.865356,1023.044434 793.264526,1023.044434 &#xA;&#9;C798.123596,1024.733032 803.241943,1023.002319 808.000000,1025.000000 &#xA;&#9;C791.979126,1025.000000 775.958191,1025.000000 759.821594,1024.824707 &#xA;&#9;C762.339905,1024.311035 764.973999,1023.972595 767.608032,1023.634094 &#xA;&#9;C767.596985,1023.530273 767.585876,1023.426514 767.574829,1023.322754 &#xA;&#9;C754.833618,1023.322754 742.092468,1023.322754 728.230835,1023.322754 &#xA;&#9;C731.172302,1024.362183 733.302551,1023.778625 735.000000,1025.000000 &#xA;&#9;C719.979126,1025.000000 704.958191,1025.000000 689.741211,1024.841431 &#xA;&#9;C690.398315,1023.905884 691.923767,1024.602783 692.606934,1023.342773 &#xA;&#9;C690.579163,1022.822754 688.334595,1023.575806 686.159546,1021.641357 &#xA;&#9;C694.125549,1022.205811 693.552429,1013.377441 698.849915,1011.001282 &#xA;&#9;C700.012939,1010.479553 699.130432,1008.934021 698.571228,1007.881470 &#xA;&#9;C697.435303,1005.743103 695.386536,1005.187500 693.294556,1004.498291 &#xA;&#9;C685.779480,1002.022522 677.693298,1000.562378 673.152405,992.810364 &#xA;&#9;C672.144653,991.090088 669.972534,990.442261 668.033325,989.897339 &#xA;&#9;C658.413940,987.194336 648.790222,984.780945 638.636047,984.889465 &#xA;&#9;C628.083008,985.002319 617.740173,983.441467 608.071289,978.811646 &#xA;&#9;C604.042114,976.882385 600.017517,974.943420 595.990417,973.009766 &#xA;&#9;C583.995728,967.250610 571.554688,964.670044 558.234070,967.162231 &#xA;&#9;C549.100891,968.870972 541.847778,974.333557 534.083313,978.742981 &#xA;&#9;C528.499573,981.913940 522.759338,984.698853 518.153870,989.659912 &#xA;&#9;C510.856171,997.520996 503.062439,1004.776611 493.204681,1009.917175 &#xA;&#9;C488.635162,1012.300049 482.606323,1015.092468 481.274994,1021.679443 &#xA;&#9;C480.934998,1023.361633 478.998962,1022.722900 477.866364,1023.543762 &#xA;&#9;C478.952911,1024.048706 479.976440,1024.524414 481.000000,1025.000000 &#xA;&#9;C321.114227,1025.000000 161.228439,1025.000000 1.000000,1025.000000 &#xA;&#9;C1.000000,980.979675 1.000000,936.958496 1.000000,892.468628 &#xA;&#9;C5.964869,893.545166 10.865235,892.026062 15.809865,891.803894 &#xA;&#9;C28.442757,891.236084 41.089123,890.882263 53.733887,890.681946 &#xA;&#9;C81.663719,890.239380 109.531067,888.250000 137.448227,887.371582 &#xA;&#9;C157.998413,886.724976 178.587601,885.830688 199.111450,884.464905 &#xA;&#9;C216.513458,883.306885 233.948151,882.926270 251.330811,881.610840 &#xA;&#9;C271.850983,880.057983 292.425751,878.889282 312.847931,876.467224 &#xA;&#9;C336.893555,873.615356 360.934509,870.613831 384.809021,866.340820 &#xA;&#9;C406.092438,862.531677 427.251648,858.339233 447.848175,851.726990 &#xA;&#9;C459.887756,847.861938 471.595306,843.337769 481.777985,835.322693 &#xA;&#9;C494.281952,825.480408 492.963898,809.810364 478.494476,802.764099 &#xA;&#9;C470.411194,798.827820 462.013550,795.612061 453.429626,792.929565 &#xA;&#9;C428.181671,785.039490 402.486420,778.845886 376.575500,773.669128 &#xA;&#9;C356.879395,769.733948 336.970642,766.875305 317.195984,763.318115 &#xA;&#9;C299.893951,760.205688 282.407532,757.702942 265.438263,753.264893 &#xA;&#9;C245.739655,748.113098 225.481689,744.387268 207.130905,734.800110 &#xA;&#9;C203.698456,733.006958 200.499695,730.994934 197.758743,728.283875 &#xA;&#9;C192.547928,723.129944 192.618683,717.781616 197.994171,712.778320 &#xA;&#9;C206.562805,704.803101 216.970535,699.974792 227.644623,695.639282 &#xA;&#9;C231.651886,694.011719 235.732147,692.564331 239.771957,691.016052 &#xA;&#9;C241.018768,690.538147 242.308121,689.799011 243.605606,690.473633 &#xA;&#9;C248.045181,692.782043 249.749420,690.147888 251.422302,686.612305 &#xA;&#9;C271.411285,644.365845 291.979065,602.377869 308.843536,558.732849 &#xA;&#9;C318.916595,532.663940 328.545074,506.432281 336.325623,479.564514 &#xA;&#9;C339.143860,469.832581 341.974792,460.103210 344.651764,450.332031 &#xA;&#9;C345.662079,446.644135 348.064392,443.882935 350.213226,440.954315 &#xA;&#9;C376.494202,405.136292 402.813965,369.346710 429.126251,333.551697 &#xA;&#9;C457.317780,295.200165 485.511963,256.850586 513.705017,218.500198 &#xA;&#9;C524.255981,204.147980 534.985535,189.922836 545.310181,175.409698 &#xA;&#9;C556.800720,159.257767 568.430969,143.205948 579.867126,127.015007 &#xA;&#9;C591.592773,110.414314 603.472168,93.922401 615.261658,77.366737 &#xA;&#9;C626.953674,60.947964 638.619263,44.510433 650.292786,28.078485 &#xA;&#9;C656.161987,19.816744 662.022888,11.549111 668.272034,2.742155 &#xA;&#9;C660.478455,1.356713 652.957458,3.211636 645.368164,1.186624 &#xA;&#9;C680.687561,1.000000 716.375122,1.000000 752.539795,1.282057 &#xA;&#9;C753.518127,3.175397 754.898499,2.659148 755.943420,2.660225 &#xA;&#9;C766.219299,2.670825 776.511169,2.951590 786.764526,2.455213 &#xA;&#9;C792.162842,2.193876 797.723999,2.894338 803.000000,1.000000 &#xA;&#9;C842.020874,1.000000 881.041809,1.000000 920.531372,1.000000 &#xA;M752.463501,1021.020569 &#xA;&#9;C758.539673,1020.927917 764.688171,1021.214661 770.633728,1018.299377 &#xA;&#9;C768.212891,1014.713074 764.009827,1016.274597 762.064392,1013.697815 &#xA;&#9;C761.738708,1011.579407 764.956177,1012.613159 764.477295,1009.996765 &#xA;&#9;C752.754822,1008.464172 740.966431,1001.399841 729.028381,1010.205017 &#xA;&#9;C729.998840,1012.812622 733.231018,1011.215881 733.887695,1013.579041 &#xA;&#9;C733.825500,1015.960632 729.374817,1015.863831 730.740967,1018.575928 &#xA;&#9;C732.013977,1021.103027 735.060120,1020.771973 737.479004,1020.878540 &#xA;&#9;C742.137268,1021.083740 746.808716,1020.992737 752.463501,1021.020569 &#xA;z" stroke="none" opacity="1.000000" fill="#000000"/>
</svg>